<svg xmlns="http://www.w3.org/2000/svg" width="32" height="32">
  <path d="M25.256 7.848a22.734 22.734 0 0 0-5.501-1.624c-.237.403-.514.944-.705 1.375a21.472 21.472 0 0 0-6.097 0 14.418 14.418 0 0 0-.713-1.375 22.65 22.65 0 0 0-5.506 1.628c-3.482 4.943-4.426 9.763-3.954 14.515a22.557 22.557 0 0 0 6.747 3.248 15.576 15.576 0 0 0 1.445-2.236 14.622 14.622 0 0 1-2.276-1.041c.191-.133.378-.272.558-.415 4.388 1.928 9.155 1.928 13.491 0 .182.143.369.282.558.415-.722.409-1.485.759-2.28 1.043.417.785.9 1.534 1.445 2.236a22.529 22.529 0 0 0 6.752-3.25c.554-5.509-.946-10.285-3.964-14.519zM11.57 19.445c-1.317 0-2.397-1.155-2.397-2.562s1.057-2.564 2.397-2.564 2.42 1.155 2.397 2.564c.002 1.407-1.057 2.562-2.397 2.562zm8.86 0c-1.317 0-2.397-1.155-2.397-2.562s1.057-2.564 2.397-2.564c1.34 0 2.42 1.155 2.397 2.564 0 1.407-1.057 2.562-2.397 2.562z"/>
</svg>
