<svg xmlns="http://www.w3.org/2000/svg" width="32" height="32">
  <path d="M16.14.001C7.193-.073-.073 7.193.001 16.14c.075 8.688 7.173 15.787 15.859 15.859 8.947.077 16.216-7.192 16.139-16.139C31.927 7.175 24.828.076 16.14.001zm-4.784 7.963a7.632 7.632 0 0 1 1.637 4.733 7.61 7.61 0 0 1-1.248 4.189H6.198l5.158-8.922zm16.912 9.747v1.152c0 .075-.04.139-.109.168-.376.16-1.616.736-2.133 1.453-1.331 1.853-2.347 4.765-4.619 4.765h-9.48c-3.357 0-6.165-2.664-6.163-6.213 0-.088.075-.16.163-.16h4.493c.155 0 .277.125.277.277v.867c0 .461.373.835.835.835h3.408v-1.984h-2.328a9.914 9.914 0 0 0 2.136-6.168 9.93 9.93 0 0 0-2.629-6.744c.987.115 1.931.312 2.821.573V5.98a1.037 1.037 0 1 1 2.074 0v1.331c3.181 1.485 5.264 3.949 5.264 6.736 0 1.635-.715 3.157-1.949 4.437a1.264 1.264 0 0 1-.909.384h-2.405v1.981h3.019c.651 0 1.819-1.235 2.373-1.979 0 0 .024-.037.088-.056s5.544-1.277 5.544-1.277a.181.181 0 0 1 .229.173v.002z"/>
</svg>
